<mxfile host="app.diagrams.net" agent="Mozilla/5.0 (Windows NT 10.0; Win64; x64) AppleWebKit/537.36 (KHTML, like Gecko) Chrome/126.0.0.0 YaBrowser/24.7.0.0 Safari/537.36" version="24.7.7">
  <diagram name="Страница — 1" id="iRQsSmjus7o22n4kABL9">
    <mxGraphModel dx="1050" dy="567" grid="1" gridSize="10" guides="1" tooltips="1" connect="1" arrows="1" fold="1" page="1" pageScale="1" pageWidth="827" pageHeight="1169" math="0" shadow="0">
      <root>
        <mxCell id="0" />
        <mxCell id="1" parent="0" />
        <mxCell id="Nt161GRDamPHUUsqxymC-1" value="" style="rounded=0;whiteSpace=wrap;html=1;" parent="1" vertex="1">
          <mxGeometry x="40" y="40" width="760" height="520" as="geometry" />
        </mxCell>
        <mxCell id="Nt161GRDamPHUUsqxymC-2" value="" style="rounded=0;whiteSpace=wrap;html=1;fillColor=#e1d5e7;strokeColor=#9673a6;" parent="1" vertex="1">
          <mxGeometry x="50" y="50" width="550" height="30" as="geometry" />
        </mxCell>
        <mxCell id="Nt161GRDamPHUUsqxymC-3" value="Войти/Выйти" style="rounded=0;whiteSpace=wrap;html=1;fillColor=#e1d5e7;strokeColor=#9673a6;fontColor=#B266FF;fontStyle=5" parent="1" vertex="1">
          <mxGeometry x="620" y="50" width="160" height="30" as="geometry" />
        </mxCell>
        <mxCell id="Nt161GRDamPHUUsqxymC-4" value="Главная" style="text;html=1;align=center;verticalAlign=middle;whiteSpace=wrap;rounded=0;fontColor=#B266FF;fontStyle=5" parent="1" vertex="1">
          <mxGeometry x="50" y="50" width="60" height="30" as="geometry" />
        </mxCell>
        <mxCell id="Nt161GRDamPHUUsqxymC-6" value="" style="shape=internalStorage;whiteSpace=wrap;html=1;backgroundOutline=1;" parent="1" vertex="1">
          <mxGeometry x="50" y="200" width="550" height="296" as="geometry" />
        </mxCell>
        <mxCell id="Nt161GRDamPHUUsqxymC-7" value="" style="endArrow=none;html=1;rounded=0;exitX=-0.001;exitY=0.165;exitDx=0;exitDy=0;exitPerimeter=0;entryX=0.995;entryY=0.165;entryDx=0;entryDy=0;entryPerimeter=0;" parent="1" edge="1">
          <mxGeometry width="50" height="50" relative="1" as="geometry">
            <mxPoint x="50.00000000000004" y="274.00000000000006" as="sourcePoint" />
            <mxPoint x="597.8" y="274.00000000000006" as="targetPoint" />
            <Array as="points">
              <mxPoint x="320" y="274" />
            </Array>
          </mxGeometry>
        </mxCell>
        <mxCell id="Nt161GRDamPHUUsqxymC-8" value="" style="endArrow=none;html=1;rounded=0;exitX=-0.001;exitY=0.165;exitDx=0;exitDy=0;exitPerimeter=0;entryX=0.995;entryY=0.165;entryDx=0;entryDy=0;entryPerimeter=0;" parent="1" edge="1">
          <mxGeometry width="50" height="50" relative="1" as="geometry">
            <mxPoint x="51.100000000000044" y="294.00000000000006" as="sourcePoint" />
            <mxPoint x="598.9" y="294.00000000000006" as="targetPoint" />
            <Array as="points">
              <mxPoint x="321.1" y="294" />
            </Array>
          </mxGeometry>
        </mxCell>
        <mxCell id="Nt161GRDamPHUUsqxymC-9" style="edgeStyle=orthogonalEdgeStyle;rounded=0;orthogonalLoop=1;jettySize=auto;html=1;exitX=0.5;exitY=1;exitDx=0;exitDy=0;" parent="1" source="Nt161GRDamPHUUsqxymC-6" target="Nt161GRDamPHUUsqxymC-6" edge="1">
          <mxGeometry relative="1" as="geometry" />
        </mxCell>
        <mxCell id="Nt161GRDamPHUUsqxymC-14" value="" style="endArrow=none;html=1;rounded=0;entryX=0.75;entryY=0;entryDx=0;entryDy=0;exitX=0.75;exitY=1;exitDx=0;exitDy=0;" parent="1" source="Nt161GRDamPHUUsqxymC-6" target="Nt161GRDamPHUUsqxymC-6" edge="1">
          <mxGeometry width="50" height="50" relative="1" as="geometry">
            <mxPoint x="198" y="394" as="sourcePoint" />
            <mxPoint x="198" y="244" as="targetPoint" />
          </mxGeometry>
        </mxCell>
        <mxCell id="Nt161GRDamPHUUsqxymC-15" value="Публикация" style="text;html=1;align=center;verticalAlign=middle;whiteSpace=wrap;rounded=0;fontStyle=1" parent="1" vertex="1">
          <mxGeometry x="220" y="195" width="60" height="30" as="geometry" />
        </mxCell>
        <mxCell id="Nt161GRDamPHUUsqxymC-17" value="Цитирования" style="text;html=1;align=center;verticalAlign=middle;whiteSpace=wrap;rounded=0;fontStyle=1" parent="1" vertex="1">
          <mxGeometry x="500" y="194" width="60" height="30" as="geometry" />
        </mxCell>
        <mxCell id="Nt161GRDamPHUUsqxymC-18" value="Реализация ..." style="text;html=1;align=center;verticalAlign=middle;whiteSpace=wrap;rounded=0;fontColor=#000000;fontStyle=0" parent="1" vertex="1">
          <mxGeometry y="234" width="250" height="15" as="geometry" />
        </mxCell>
        <mxCell id="Nt161GRDamPHUUsqxymC-21" value="12" style="text;html=1;align=center;verticalAlign=middle;whiteSpace=wrap;rounded=0;" parent="1" vertex="1">
          <mxGeometry x="500" y="226.5" width="60" height="30" as="geometry" />
        </mxCell>
        <mxCell id="Nt161GRDamPHUUsqxymC-22" value="" style="ellipse;whiteSpace=wrap;html=1;" parent="1" vertex="1">
          <mxGeometry x="615" y="100" width="170" height="170" as="geometry" />
        </mxCell>
        <mxCell id="Nt161GRDamPHUUsqxymC-23" value="" style="endArrow=none;html=1;rounded=0;entryX=1;entryY=0;entryDx=0;entryDy=0;" parent="1" target="Nt161GRDamPHUUsqxymC-22" edge="1">
          <mxGeometry width="50" height="50" relative="1" as="geometry">
            <mxPoint x="710" y="180" as="sourcePoint" />
            <mxPoint x="730" y="160" as="targetPoint" />
          </mxGeometry>
        </mxCell>
        <mxCell id="Nt161GRDamPHUUsqxymC-24" value="" style="endArrow=none;html=1;rounded=0;exitX=0.794;exitY=0.917;exitDx=0;exitDy=0;exitPerimeter=0;" parent="1" source="Nt161GRDamPHUUsqxymC-22" edge="1">
          <mxGeometry width="50" height="50" relative="1" as="geometry">
            <mxPoint x="690" y="250" as="sourcePoint" />
            <mxPoint x="710" y="180" as="targetPoint" />
          </mxGeometry>
        </mxCell>
        <mxCell id="Nt161GRDamPHUUsqxymC-25" value="" style="endArrow=none;html=1;rounded=0;exitX=0;exitY=0.5;exitDx=0;exitDy=0;" parent="1" source="Nt161GRDamPHUUsqxymC-22" edge="1">
          <mxGeometry width="50" height="50" relative="1" as="geometry">
            <mxPoint x="650" y="370" as="sourcePoint" />
            <mxPoint x="710" y="180" as="targetPoint" />
          </mxGeometry>
        </mxCell>
        <mxCell id="Nt161GRDamPHUUsqxymC-26" value="Удалить преподавателя" style="text;html=1;align=center;verticalAlign=middle;whiteSpace=wrap;rounded=0;fontStyle=5;fontColor=#B266FF;" parent="1" vertex="1">
          <mxGeometry x="400" y="50" width="230" height="30" as="geometry" />
        </mxCell>
        <mxCell id="Nt161GRDamPHUUsqxymC-45" value="" style="rounded=0;whiteSpace=wrap;html=1;fillColor=#e1d5e7;strokeColor=#9673a6;" parent="1" vertex="1">
          <mxGeometry x="50" y="90" width="550" height="20" as="geometry" />
        </mxCell>
        <mxCell id="Nt161GRDamPHUUsqxymC-46" value="Выгрузить в эксель" style="text;html=1;align=center;verticalAlign=middle;whiteSpace=wrap;rounded=0;fontStyle=5;fontColor=#B266FF;" parent="1" vertex="1">
          <mxGeometry x="60" y="50" width="260" height="30" as="geometry" />
        </mxCell>
        <mxCell id="Nt161GRDamPHUUsqxymC-47" value="" style="rounded=0;whiteSpace=wrap;html=1;" parent="1" vertex="1">
          <mxGeometry x="610" y="280" width="170" height="250" as="geometry" />
        </mxCell>
        <mxCell id="Nt161GRDamPHUUsqxymC-49" value="Графики" style="text;html=1;align=center;verticalAlign=middle;whiteSpace=wrap;rounded=0;fontColor=#CCCCCC;" parent="1" vertex="1">
          <mxGeometry x="670" y="370" width="60" height="30" as="geometry" />
        </mxCell>
        <mxCell id="wjDFELc_HmPzBv-rfpMu-1" value="Обновить публикации" style="text;html=1;align=center;verticalAlign=middle;whiteSpace=wrap;rounded=0;fontStyle=5;fontColor=#B266FF;" vertex="1" parent="1">
          <mxGeometry x="210" y="50" width="260" height="30" as="geometry" />
        </mxCell>
        <mxCell id="wjDFELc_HmPzBv-rfpMu-2" value="Name:" style="text;html=1;align=center;verticalAlign=middle;whiteSpace=wrap;rounded=0;" vertex="1" parent="1">
          <mxGeometry x="50" y="115" width="60" height="30" as="geometry" />
        </mxCell>
        <mxCell id="wjDFELc_HmPzBv-rfpMu-3" value="Job:" style="text;html=1;align=center;verticalAlign=middle;whiteSpace=wrap;rounded=0;" vertex="1" parent="1">
          <mxGeometry x="50" y="140" width="50" height="30" as="geometry" />
        </mxCell>
        <mxCell id="wjDFELc_HmPzBv-rfpMu-5" value="Departament" style="text;html=1;align=center;verticalAlign=middle;whiteSpace=wrap;rounded=0;" vertex="1" parent="1">
          <mxGeometry x="60" y="165" width="60" height="30" as="geometry" />
        </mxCell>
        <mxCell id="wjDFELc_HmPzBv-rfpMu-6" value="" style="rounded=0;whiteSpace=wrap;html=1;" vertex="1" parent="1">
          <mxGeometry x="140" y="120" width="230" height="20" as="geometry" />
        </mxCell>
        <mxCell id="wjDFELc_HmPzBv-rfpMu-7" style="edgeStyle=orthogonalEdgeStyle;rounded=0;orthogonalLoop=1;jettySize=auto;html=1;exitX=0.5;exitY=1;exitDx=0;exitDy=0;" edge="1" parent="1" source="wjDFELc_HmPzBv-rfpMu-5" target="wjDFELc_HmPzBv-rfpMu-5">
          <mxGeometry relative="1" as="geometry" />
        </mxCell>
        <mxCell id="wjDFELc_HmPzBv-rfpMu-8" value="" style="rounded=0;whiteSpace=wrap;html=1;" vertex="1" parent="1">
          <mxGeometry x="140" y="145" width="230" height="20" as="geometry" />
        </mxCell>
        <mxCell id="wjDFELc_HmPzBv-rfpMu-9" value="" style="rounded=0;whiteSpace=wrap;html=1;" vertex="1" parent="1">
          <mxGeometry x="140" y="170" width="230" height="20" as="geometry" />
        </mxCell>
      </root>
    </mxGraphModel>
  </diagram>
</mxfile>
